#!OML:ASF H:\Terrain\Patient Classification 1\Terrain2\Thursday\justin.ASF
:FULLY-SPECIFIED
:DEGREES
3595
root 11.9303 25.8152 -0.0989651 179.584 82.2891 184.879
lowerback 10.818 -0.0215604 -2.00487
upperback 4.83455 0.0425531 2.47581
thorax -1.02426 0.0639601 3.69502
lowerneck -10.8993 -3.48261 -9.72315
upperneck 40.1857 -1.82004 4.09654
head 16.4695 -0.96654 3.47756
rclavicle 1.45113e-014 7.55382e-015
rhumerus -33.1702 -11.5633 -74.5666
rradius 33.3955
rwrist -14.2891
rhand -23.3484 13.118
rfingers 7.12502
rthumb 3.10665 -16.8391
lclavicle 1.45113e-014 7.55382e-015
lhumerus -35.5351 6.57871 79.8088
lradius 31.7096
lwrist 3.33874
lhand -20.4764 18.8331
lfingers 7.12502
lthumb 5.87987 48.7316
rfemur -34.4758 -18.8188 25.8626
rtibia 48.6229
rfoot 6.28712 -5.47488
rtoes -1.21278
lfemur -0.759033 3.02296 -18.578
ltibia 48.4886
lfoot -25.1074 -8.50396
ltoes -7.3551
3596
root 11.993 25.7563 -0.10113 185.782 82.3854 191.244
lowerback 10.7963 -0.0159931 -1.05694
upperback 4.84618 0.152265 2.65535
thorax -1.01136 0.13195 3.3319
lowerneck -10.7918 -3.55076 -9.84456
upperneck 40.0188 -1.9728 4.22633
head 16.3724 -1.03153 3.52321
rclavicle 1.66979e-014 -3.18055e-015
rhumerus -33.4628 -11.7339 -74.6204
rradius 33.1205
rwrist -14.2404
rhand -23.6236 13.074
rfingers 7.12502
rthumb 2.84088 -16.8868
lclavicle 1.66979e-014 -3.18055e-015
lhumerus -35.5684 6.39228 79.8456
lradius 32.1636
lwrist 3.35179
lhand -20.1051 19.2484
lfingers 7.12502
lthumb 6.23836 49.1365
rfemur -33.8238 -18.8821 26.8317
rtibia 46.7935
rfoot 7.79479 -5.62249
rtoes -0.249237
lfemur -1.43762 3.4221 -17.218
ltibia 50.4892
lfoot -24.8052 -10.0614
ltoes -7.109
3597
root 12.0587 25.6915 -0.0959982 192.5 82.427 198.055
lowerback 10.662 -0.038311 -0.192698
upperback 4.87339 0.216409 2.88468
thorax -0.914557 0.175455 3.07381
lowerneck -10.7171 -3.55203 -9.87345
upperneck 39.7996 -1.99825 4.20707
head 16.2391 -1.05104 3.50302
rclavicle -1.49089e-014 -1.43125e-014
rhumerus -33.5498 -11.862 -74.6616
rradius 32.6661
rwrist -13.9222
rhand -23.5201 13.2574
rfingers 7.12502
rthumb 2.94081 -16.7021
lclavicle -1.49089e-014 -1.43125e-014
lhumerus -35.5655 6.1808 79.8846
lradius 32.6
lwrist 3.4628
lhand -20.0628 19.8721
lfingers 7.12502
lthumb 6.27917 49.7591
rfemur -33.1807 -18.7771 27.8484
rtibia 44.9569
rfoot 9.09589 -5.99997
rtoes 2.39422
lfemur -2.18294 3.93844 -15.7419
ltibia 52.4705
lfoot -24.1165 -11.8817
ltoes -5.16259
3598
root 12.1332 25.6042 -0.0917722 193.622 82.7313 199.448
lowerback 10.6541 0.0640357 -0.0570704
upperback 4.94855 0.366229 2.87045
thorax -0.839926 0.252803 2.96545
lowerneck -10.6098 -3.54797 -10.0642
upperneck 39.7192 -2.07744 4.51524
head 16.1848 -1.07121 3.65787
rclavicle -7.85199e-015 4.77083e-015
rhumerus -33.7902 -11.949 -74.5959
rradius 32.3361
rwrist -13.5213
rhand -23.0413 13.2764
rfingers 7.12502
rthumb 3.40323 -16.6762
lclavicle -7.85199e-015 4.77083e-015
lhumerus -35.6144 5.58251 80.0017
lradius 33.0201
lwrist 3.8879
lhand -19.7056 19.5835
lfingers 7.12502
lthumb 6.62407 49.4599
rfemur -32.2901 -18.6886 27.9088
rtibia 43.1344
rfoot 10.4355 -5.63538
rtoes 2.68902
lfemur -2.51672 4.51066 -15.1716
ltibia 54.3247
lfoot -23.5898 -13.3884
ltoes -4.34453
3599
root 12.2131 25.5106 -0.101553 193.472 83.1818 199.518
lowerback 10.5383 0.200245 -0.0783824
upperback 5.01398 0.54079 2.83247
thorax -0.717818 0.338978 2.91886
lowerneck -10.4315 -3.55105 -10.1672
upperneck 39.5659 -2.11513 4.59078
head 16.0671 -1.09104 3.69511
rclavicle -2.05742e-014 -1.78906e-014
rhumerus -34.0828 -12.0269 -74.4568
rradius 32.0536
rwrist -13.1408
rhand -22.8131 13.3963
rfingers 7.12502
rthumb 3.62362 -16.5526
lclavicle -2.05742e-014 -1.78906e-014
lhumerus -35.6992 5.06058 80.1616
lradius 33.4654
lwrist 4.44997
lhand -18.9241 19.1223
lfingers 7.12502
lthumb 7.37844 48.9736
rfemur -31.4261 -18.6722 27.7258
rtibia 41.3422
rfoot 11.7176 -4.7199
rtoes 0.764734
lfemur -2.7005 4.8649 -15.0098
ltibia 56.021
lfoot -23.3839 -14.4257
ltoes -5.05231
